<?xml version="1.0" standalone="no"?>
<!DOCTYPE svg PUBLIC "-//W3C//DTD SVG 20010904//EN"
 "http://www.w3.org/TR/2001/REC-SVG-20010904/DTD/svg10.dtd">
<svg version="1.0" xmlns="http://www.w3.org/2000/svg"
 width="700.000000pt" height="700.000000pt" viewBox="0 0 700.000000 700.000000"
 preserveAspectRatio="xMidYMid meet">
<metadata>
Created by potrace 1.14, written by Peter Selinger 2001-2017
</metadata>
<g transform="translate(0.000000,700.000000) scale(0.100000,-0.100000)"
fill="#000000" stroke="none">
<path d="M980 6994 c-160 -25 -270 -58 -385 -116 -111 -56 -197 -118 -290
-212 -135 -137 -225 -295 -276 -491 l-24 -90 0 -2585 0 -2585 24 -90 c110
-420 434 -719 871 -807 100 -20 5104 -19 5205 1 432 86 755 387 866 807 l24
89 0 2585 0 2585 -24 89 c-108 412 -403 694 -839 803 -62 16 -263 17 -2597 19
-1392 1 -2541 0 -2555 -2z m2957 -1103 c324 -61 576 -192 798 -415 129 -130
225 -260 313 -426 65 -122 126 -270 115 -280 -10 -9 -564 -222 -567 -218 -2 2
-13 32 -26 68 -54 152 -159 326 -266 439 -265 281 -587 379 -989 299 -434 -85
-704 -409 -820 -981 -105 -521 -92 -1292 29 -1758 83 -317 219 -559 400 -710
85 -72 256 -158 371 -188 171 -44 383 -50 532 -16 347 80 632 356 831 801 27
60 52 117 55 127 7 20 -23 31 317 -110 216 -89 225 -93 223 -119 -3 -43 -166
-360 -247 -482 -345 -518 -805 -771 -1402 -772 -398 0 -752 100 -1039 293
-132 90 -321 283 -417 427 -204 307 -325 667 -383 1136 -68 545 -22 1243 111
1681 220 728 679 1127 1401 1218 162 21 515 13 660 -14z m482 -1549 c26 -48
231 -610 256 -701 21 -73 31 -98 36 -85 4 11 26 78 48 149 23 72 85 247 140
390 l98 260 129 0 129 0 0 -770 0 -770 -93 -3 -93 -3 3 660 c2 363 2 658 1
657 -1 -1 -34 -94 -72 -207 -39 -112 -104 -292 -144 -399 l-74 -195 -82 -3
c-44 -2 -81 -1 -81 1 0 2 -44 120 -99 263 -54 142 -120 324 -146 404 -26 80
-48 146 -48 147 -1 1 -1 -298 1 -663 l4 -664 -91 0 -91 0 0 775 0 775 130 0
c114 0 130 -2 139 -18z"/>
</g>
</svg>
